# xmcd CD database file
#
# Track frame offsets:
#	150
#	18883
#	37880
#	56614
#
# Disc length: 1005 seconds
#
# Revision: 4
# Processed by: cddbd v1.5PL3 Copyright (c) Steve Scherf et al.
# Submitted via: CDex 1.40Release
#
DISCID=2403eb04
DTITLE=ZONE - true blue - 恋々
DYEAR=2003
DGENRE=Pop
TTITLE0=true blue
TTITLE1=恋々…
TTITLE2=true blue (backing track)
TTITLE3=恋々… (backing track)
EXTD=YEAR: 2003 ID3G: 13
EXTT0=
EXTT1=
EXTT2=
EXTT3=
PLAYORDER=
